<?xml version="1.0" standalone="no"?>
<!DOCTYPE svg PUBLIC "-//W3C//DTD SVG 20010904//EN"
 "http://www.w3.org/TR/2001/REC-SVG-20010904/DTD/svg10.dtd">
<svg version="1.0" xmlns="http://www.w3.org/2000/svg"
 width="513.000000pt" height="513.000000pt" viewBox="0 0 513.000000 513.000000"
 preserveAspectRatio="xMidYMid meet">
<metadata>
Created by potrace 1.15, written by Peter Selinger 2001-2017
</metadata>
<g transform="translate(0.000000,513.000000) scale(0.100000,-0.100000)"
fill="#000000" stroke="none">
<path d="M2320 4779 c-484 -48 -969 -273 -1330 -616 -206 -196 -352 -395 -480
-658 -162 -329 -230 -625 -230 -997 0 -367 73 -685 230 -1005 337 -690 989
-1158 1760 -1265 139 -19 468 -16 609 6 255 39 483 111 706 224 230 117 412
251 601 444 188 191 299 348 418 588 107 215 170 418 212 675 23 138 26 495 6
630 -77 519 -297 961 -658 1321 -431 431 -1014 669 -1623 663 -75 -1 -174 -5
-221 -10z m225 -70 c4 -6 -3 -13 -15 -16 -22 -6 -22 -9 -16 -92 14 -174 17
-191 37 -191 11 0 19 -7 19 -15 0 -11 -14 -15 -55 -17 -30 -1 -62 -2 -72 -2
-24 -1 -27 21 -4 27 22 5 22 16 2 202 l-6 60 -29 -147 c-18 -95 -32 -148 -40
-148 -7 0 -37 61 -66 135 -29 74 -54 134 -56 133 -1 -2 3 -55 10 -118 10 -104
13 -116 34 -125 33 -15 27 -35 -10 -35 -18 0 -43 -3 -55 -6 -27 -8 -33 20 -7
30 15 6 16 20 10 119 -9 139 -13 157 -37 157 -10 0 -19 6 -19 14 0 17 117 27
129 11 4 -5 23 -48 41 -94 19 -47 35 -81 37 -75 1 5 11 50 21 99 l18 90 49 6
c28 3 55 7 62 7 6 1 15 -3 18 -9z m280 -156 c22 -84 46 -158 53 -165 6 -6 12
-16 12 -20 0 -9 -85 -10 -119 -1 l-24 6 22 16 c17 13 19 22 13 46 -8 27 -13
31 -56 36 -38 4 -49 2 -57 -12 -14 -28 -11 -47 12 -60 32 -16 10 -26 -48 -21
-54 4 -73 24 -34 37 12 3 43 57 87 151 48 102 73 144 84 142 10 -2 27 -50 55
-155z m268 93 c48 -14 99 -32 112 -40 31 -21 41 -58 25 -97 -14 -33 -37 -49
-71 -49 -21 0 -21 -1 -6 -18 12 -13 17 -37 17 -75 0 -57 13 -75 25 -37 7 23
25 27 25 5 0 -21 -36 -55 -59 -55 -57 0 -74 29 -61 100 11 58 2 84 -30 93 -16
4 -21 -2 -29 -31 -23 -87 -23 -90 -6 -100 10 -5 16 -14 14 -19 -3 -6 -32 -2
-76 10 -72 19 -96 37 -49 37 21 0 26 8 46 83 12 45 28 103 35 130 13 44 13 48
-5 60 -23 13 -26 27 -7 27 6 0 52 -11 100 -24z m-1163 -78 c38 -26 75 -92 84
-150 7 -43 -10 -93 -41 -121 -16 -14 -184 -87 -200 -87 -9 0 -1 24 12 34 13
10 9 28 -33 136 -43 110 -51 125 -70 123 -50 -6 -16 24 61 54 99 38 143 41
187 11z m1507 -41 c53 -22 75 -53 30 -42 -22 6 -27 -3 -75 -112 -29 -65 -52
-123 -52 -129 0 -7 8 -15 17 -18 11 -5 13 -10 6 -17 -7 -7 -31 -1 -77 20 -64
29 -91 58 -43 46 21 -6 27 3 75 110 53 119 59 139 42 150 -5 3 -10 11 -10 17
0 11 9 9 87 -25z m-1844 -197 c75 -62 130 -100 144 -100 13 0 23 -4 23 -10 0
-9 -45 -41 -98 -69 -23 -12 -24 -12 -18 16 5 22 1 32 -19 46 -24 17 -26 17
-65 -5 -22 -13 -40 -29 -40 -36 0 -28 21 -53 42 -50 39 6 28 -17 -23 -46 l-51
-28 6 43 c4 29 -4 92 -22 182 -25 124 -26 157 -4 157 2 0 58 -45 125 -100z
m2097 72 c0 -5 -14 -76 -30 -158 -35 -170 -33 -198 9 -201 25 -2 39 10 103 85
91 107 91 107 78 131 -18 34 7 33 45 -1 l37 -32 -7 -110 c-3 -61 -9 -120 -12
-131 -6 -23 41 26 84 88 20 29 23 41 15 49 -15 15 -15 28 -1 28 19 0 89 -61
83 -72 -3 -5 -13 -7 -21 -4 -24 10 -46 -9 -133 -113 -79 -97 -93 -110 -103
-93 -3 4 0 76 7 160 6 83 11 152 9 152 -1 0 -30 -33 -63 -72 -54 -64 -61 -77
-56 -105 6 -41 -6 -42 -50 -4 -18 17 -63 47 -98 68 -62 36 -91 72 -46 58 11
-3 20 -5 20 -3 0 2 4 18 9 36 9 31 8 33 -36 59 l-46 27 -18 -23 c-15 -18 -16
-27 -8 -43 17 -31 2 -34 -46 -8 -50 28 -53 40 -9 52 16 4 79 48 139 97 99 81
145 107 145 83z m-990 -152 c225 -20 412 -71 610 -166 205 -98 348 -202 508
-369 457 -475 606 -1157 390 -1784 -49 -144 -137 -316 -226 -441 -86 -122
-290 -326 -412 -412 -119 -84 -323 -187 -460 -232 -185 -61 -283 -77 -505 -83
-175 -5 -216 -2 -327 16 -158 27 -269 59 -401 115 -441 190 -780 540 -952 986
-126 326 -149 723 -60 1065 186 714 803 1239 1535 1304 136 12 172 12 300 1z
m-1391 -25 c40 -20 99 -92 111 -134 18 -67 -3 -106 -101 -187 -67 -54 -97 -65
-71 -24 10 16 1 31 -74 119 -75 88 -88 100 -110 95 -13 -3 -24 -2 -24 4 0 10
119 110 155 130 28 16 81 15 114 -3z m-314 -203 c-5 -26 2 -35 77 -102 124
-110 117 -105 130 -92 16 16 28 15 28 -1 0 -17 -98 -113 -106 -104 -4 4 -2 13
5 20 14 18 6 28 -107 127 -73 65 -86 73 -102 62 -40 -24 -30 10 17 63 55 61
67 67 58 27z m3221 -78 c112 -54 92 -216 -36 -281 -76 -39 -140 -26 -195 39
-24 28 -27 39 -23 85 10 121 149 207 254 157z m-3334 -105 c26 -17 46 -34 43
-39 -2 -4 -26 -5 -52 -3 -39 4 -53 1 -75 -17 -36 -28 -37 -66 -3 -82 22 -10
30 -7 68 21 70 53 101 64 140 47 45 -18 77 -61 77 -102 0 -36 -38 -89 -71 -99
-14 -5 -18 -12 -14 -25 3 -10 2 -21 -3 -24 -11 -6 -116 63 -108 72 3 3 33 4
65 3 49 -2 63 1 80 18 23 23 27 61 9 79 -21 21 -53 13 -108 -28 -60 -45 -88
-49 -135 -20 -66 41 -70 110 -9 166 19 18 34 40 34 48 0 22 6 20 62 -15z
m-134 -291 c12 -12 22 -33 22 -49 0 -26 2 -27 33 -22 18 3 49 0 69 -5 44 -12
54 -5 31 20 -25 28 -6 35 22 8 30 -28 32 -63 5 -90 -24 -24 -39 -25 -87 -5
-52 22 -90 20 -98 -6 -8 -24 -11 -21 42 -48 51 -26 69 -26 82 -3 9 15 10 16
16 1 4 -10 -7 -43 -24 -78 -32 -62 -55 -80 -49 -38 3 19 -12 30 -114 82 -105
54 -120 59 -139 47 -11 -7 -23 -11 -26 -9 -9 10 87 186 114 206 31 26 65 22
101 -11z m3732 -23 c39 -20 72 -69 73 -110 1 -24 7 -37 19 -41 10 -3 18 -9 18
-13 0 -11 -110 -62 -121 -55 -5 3 6 23 26 45 40 45 45 79 14 110 -18 18 -29
21 -71 16 -61 -8 -167 -64 -188 -99 -21 -38 -1 -78 39 -78 46 0 81 17 78 37
-5 39 19 18 45 -38 18 -39 23 -59 14 -59 -6 0 -17 5 -23 11 -7 7 -27 2 -66
-17 -60 -29 -82 -27 -53 5 17 19 17 20 -13 35 -76 40 -81 146 -9 213 53 50
159 69 218 38z m-3892 -286 c33 -13 27 -29 -11 -29 -18 0 -42 -7 -54 -15 -28
-19 -46 -70 -30 -83 11 -9 82 -32 100 -32 17 0 5 40 -18 58 -48 38 -34 39 83
6 57 -17 69 -34 24 -34 -16 0 -37 -9 -47 -20 -20 -22 -22 -20 57 -44 57 -17
72 -6 72 51 0 27 -7 42 -32 64 -28 25 -41 49 -27 49 6 0 115 -41 115 -43 0 -1
-17 -56 -38 -121 -37 -117 -57 -150 -64 -105 -3 20 -20 28 -127 62 -112 35
-126 37 -137 23 -14 -19 -38 -21 -31 -3 3 8 20 61 37 118 18 57 34 108 37 112
5 8 50 1 91 -14z m3763 -83 c19 -7 77 -17 129 -20 146 -11 188 -17 194 -31 3
-8 -46 -48 -128 -104 -132 -89 -150 -109 -139 -151 6 -24 -2 -24 148 -5 65 8
123 15 127 15 4 0 8 9 8 20 0 20 15 27 23 13 11 -19 18 -143 8 -143 -5 0 -13
9 -16 21 -7 22 -8 22 -200 -5 l-80 -11 3 -35 c3 -42 28 -70 73 -79 54 -11 48
-31 -10 -32 -28 -1 -57 -2 -63 -3 -12 -1 -29 84 -42 219 -3 28 -12 76 -21 108
-16 60 -12 91 8 63 11 -14 15 -14 44 3 31 19 31 20 19 61 -7 23 -19 46 -27 50
-22 12 -59 -7 -59 -30 0 -35 -19 -22 -30 21 -6 22 -14 47 -17 55 -7 18 5 18
48 0z m-3912 -228 c6 -16 50 -44 150 -93 102 -50 141 -74 141 -87 0 -10 -3
-18 -7 -18 -35 0 -311 -66 -319 -76 -20 -25 -35 -16 -30 19 3 17 8 49 11 70 7
41 20 49 28 16 4 -14 11 -19 24 -15 10 2 58 13 108 22 l89 18 -79 38 c-85 41
-119 47 -129 23 -9 -25 -26 -17 -26 14 0 43 11 91 21 91 5 0 13 -10 18 -22z
m4305 -326 c-1 -7 -2 -39 -2 -72 -2 -59 -18 -82 -29 -39 -3 11 -11 18 -17 16
-6 -2 -47 -15 -91 -27 -44 -13 -84 -26 -88 -30 -11 -10 162 -72 180 -66 7 3
13 12 13 21 0 8 7 15 15 15 11 0 15 -13 15 -54 0 -32 -5 -58 -12 -62 -6 -4
-13 -3 -15 2 -10 28 -34 42 -164 94 -192 76 -192 78 11 140 115 35 156 51 158
64 4 19 28 17 26 -2z m-4034 -87 c0 -57 -3 -75 -14 -75 -7 0 -16 10 -19 21 -5
20 -11 21 -53 15 -26 -3 -87 -6 -135 -6 -84 0 -89 -1 -89 -21 0 -12 -5 -19
-12 -17 -20 7 -24 148 -5 148 8 0 17 -10 20 -21 5 -20 10 -21 59 -16 29 4 90
7 136 7 75 0 82 2 82 20 0 11 7 20 15 20 12 0 15 -15 15 -75z m-304 -150 c8
-19 57 -19 189 0 55 8 106 15 113 15 29 0 6 -29 -98 -128 -61 -57 -109 -106
-107 -108 3 -3 72 6 165 22 23 3 36 13 42 30 14 36 27 22 35 -37 8 -59 0 -73
-24 -41 l-17 23 -112 -15 c-62 -9 -117 -16 -123 -16 -5 0 -14 -11 -19 -25 -12
-31 -26 -32 -34 -2 -17 63 -10 77 86 167 l93 87 -80 -11 c-68 -9 -82 -14 -90
-34 -20 -45 -45 -10 -45 64 0 27 17 32 26 9z m4014 -78 c0 -21 9 -24 130 -48
l131 -26 14 20 c27 39 29 6 5 -119 l-24 -125 -50 6 c-28 4 -54 9 -58 12 -18
10 -5 21 31 27 45 7 71 36 71 78 0 33 -3 35 -68 44 -62 8 -67 -4 -22 -46 35
-33 31 -40 -18 -30 -20 4 -54 11 -74 14 -42 8 -52 26 -15 26 23 0 65 35 55 45
-2 3 -31 10 -62 17 -66 13 -76 6 -76 -48 0 -31 17 -54 65 -88 11 -8 18 -17 15
-19 -7 -7 -103 13 -114 23 -7 7 29 233 41 253 9 15 23 6 23 -16z m-3635 -300
c54 -54 59 -140 11 -172 -13 -9 -70 -33 -127 -53 -92 -34 -104 -41 -102 -60 6
-48 -24 -18 -45 45 -22 68 -20 101 5 67 13 -18 17 -17 111 14 53 17 107 39
120 47 43 31 17 115 -36 115 -37 0 -213 -60 -217 -74 -15 -51 -17 -52 -36 -11
-10 22 -19 48 -19 58 0 19 15 23 25 7 10 -17 47 -11 135 20 111 39 134 38 175
-3z m3677 -113 c82 -99 104 -121 110 -107 15 39 8 82 -18 113 -15 17 -24 33
-22 36 3 2 28 -5 57 -17 40 -17 50 -26 46 -39 -18 -58 -74 -185 -83 -188 -5
-1 -59 54 -118 124 -115 135 -122 138 -123 54 -1 -25 7 -42 31 -67 17 -18 29
-35 26 -38 -3 -3 -31 6 -62 20 -46 21 -57 29 -51 43 4 9 23 58 42 109 24 63
39 90 48 86 8 -2 60 -61 117 -129z m-3469 -475 c33 -36 35 -76 6 -113 -30 -38
-64 -49 -105 -36 -42 14 -64 44 -64 88 0 45 16 71 53 88 42 18 76 10 110 -27z
m3248 31 c24 0 59 -54 59 -90 0 -87 -102 -124 -162 -59 -35 37 -36 78 -3 118
25 29 56 42 83 35 8 -2 18 -4 23 -4z m-2851 -351 c20 -11 45 -34 54 -50 10
-16 26 -29 37 -29 26 0 25 -5 -17 -61 -38 -52 -61 -64 -50 -26 4 12 10 40 13
63 5 36 2 43 -23 63 -48 38 -101 12 -171 -82 -47 -64 -55 -107 -26 -139 23
-26 50 -22 85 12 29 29 29 32 14 49 -12 13 -14 21 -7 26 12 7 111 -72 111 -88
0 -5 -9 -7 -20 -4 -15 4 -30 -7 -61 -44 -41 -49 -64 -56 -54 -16 5 19 2 22
-24 23 -99 3 -146 118 -88 217 55 94 149 129 227 86z m2445 -70 c95 -56 142
-78 155 -74 37 12 22 -21 -29 -63 -47 -40 -68 -43 -55 -9 5 15 -30 47 -51 47
-5 -1 -25 -14 -44 -30 -32 -27 -33 -32 -23 -55 10 -21 18 -26 40 -23 37 4 34
-12 -11 -51 -42 -38 -53 -35 -49 12 2 19 -17 86 -48 170 -47 127 -53 157 -30
157 5 0 70 -36 145 -81z m-2224 -91 c57 -32 73 -56 32 -50 -17 2 -31 -15 -73
-92 -59 -110 -63 -150 -18 -175 47 -27 76 -7 130 89 48 87 57 117 37 137 -6 6
-8 16 -4 22 8 14 107 -39 101 -54 -2 -5 -9 -9 -15 -7 -26 5 -50 -21 -90 -97
-64 -123 -110 -151 -187 -115 -45 22 -74 59 -74 97 0 17 23 73 55 132 47 89
53 104 40 115 -17 15 -20 30 -4 30 6 0 37 -15 70 -32z m1859 -5 c0 -3 -7 -14
-15 -23 -13 -15 -8 -28 53 -130 37 -62 72 -115 78 -117 6 -2 26 8 44 23 30 26
32 31 28 76 -3 27 -2 51 3 53 4 3 21 -20 37 -50 l30 -55 -108 -65 c-59 -36
-113 -65 -119 -65 -15 0 -14 10 3 29 13 14 6 30 -52 129 -58 97 -70 112 -91
110 -44 -5 -31 16 32 54 63 38 77 43 77 31z m-155 -251 c49 -57 100 -108 114
-113 30 -12 21 -22 -47 -48 -59 -23 -78 -20 -59 9 10 17 8 23 -10 42 -21 20
-25 21 -63 8 -23 -7 -43 -17 -46 -22 -12 -19 6 -57 28 -60 40 -6 30 -26 -22
-43 -57 -19 -67 -16 -51 13 7 13 11 85 11 181 0 118 3 161 13 164 14 6 19 1
132 -131z m-1325 -66 c0 -119 3 -156 15 -173 22 -32 5 -35 -64 -12 -60 21 -80
39 -41 39 17 0 20 7 20 39 0 37 -1 39 -46 51 -43 12 -48 12 -60 -5 -19 -25
-18 -42 4 -54 12 -7 14 -13 6 -20 -11 -12 -99 12 -109 29 -3 5 9 16 27 25 18
8 49 37 68 62 180 240 180 240 180 19z m1050 119 c0 -8 -7 -15 -15 -15 -20 0
-19 -18 5 -136 30 -148 28 -144 50 -144 27 0 25 -18 -2 -25 -130 -29 -128 -29
-128 -10 0 8 7 15 15 15 9 0 15 9 15 23 0 23 -38 229 -44 234 -2 2 -6 -36 -10
-84 -12 -167 -19 -213 -30 -213 -6 0 -40 56 -76 125 -35 68 -66 122 -68 120
-7 -7 38 -208 49 -222 6 -7 18 -13 26 -13 34 0 3 -26 -41 -34 -55 -10 -66 -4
-41 24 18 20 18 24 -6 148 -23 119 -26 127 -47 125 -13 -2 -22 3 -22 11 0 8
22 18 61 25 71 14 60 22 116 -86 21 -40 41 -73 46 -73 4 0 7 24 8 53 0 28 4
72 7 97 l7 45 55 12 c73 15 70 15 70 -2z m-800 -24 l105 -17 3 -39 c4 -45 -5
-85 -18 -85 -6 0 -10 12 -10 28 0 39 -22 77 -45 77 -17 0 -22 -13 -37 -105
-23 -146 -23 -167 3 -175 14 -5 18 -10 11 -17 -16 -16 -152 10 -152 29 0 9 6
13 14 10 8 -3 19 0 23 6 10 12 43 213 43 255 0 41 -44 24 -71 -29 -18 -36 -48
-57 -36 -25 3 7 9 34 12 60 8 54 1 53 155 27z m363 -31 l37 0 0 -60 c0 -67
-13 -77 -34 -26 -18 42 -56 69 -93 64 -27 -3 -28 -5 -31 -65 -2 -39 1 -63 8
-63 15 0 50 38 50 55 0 8 5 15 10 15 6 0 10 -33 10 -80 0 -47 -4 -80 -10 -80
-5 0 -10 7 -10 15 0 17 -35 55 -50 55 -7 0 -10 -25 -8 -67 l3 -68 37 1 c44 1
66 17 85 62 18 43 33 41 33 -5 0 -86 4 -83 -146 -83 -132 0 -165 9 -109 30 25
9 25 10 25 145 0 128 -1 135 -20 135 -12 0 -20 7 -20 17 0 14 11 15 98 10 53
-4 114 -7 135 -7z"/>
<path d="M1782 4538 c-14 -17 77 -252 99 -256 9 -1 27 6 40 17 19 15 24 28 23
63 -1 48 -34 131 -66 165 -24 25 -79 31 -96 11z"/>
<path d="M2415 4174 c-150 -21 -193 -29 -280 -51 -621 -159 -1103 -680 -1221
-1318 -15 -76 -19 -148 -19 -300 0 -232 14 -330 76 -520 50 -153 146 -347 168
-341 9 3 36 8 61 12 25 3 88 19 140 35 52 16 98 29 102 29 10 0 43 -108 35
-116 -3 -4 -49 -7 -101 -7 -57 0 -93 -4 -89 -10 3 -6 47 -8 103 -5 l98 5 4
-44 c2 -32 -1 -44 -12 -47 -8 -2 -39 -10 -68 -16 -28 -7 -55 -17 -59 -23 -4
-7 0 -8 13 -3 47 19 134 30 146 18 9 -9 4 -13 -19 -18 -18 -3 -34 -12 -37 -20
-3 -8 -14 -14 -25 -14 -11 0 -23 -5 -27 -11 -9 -16 58 0 71 16 12 16 170 55
219 55 28 0 36 4 36 18 0 30 -17 45 -56 51 -34 5 -39 10 -45 40 -9 42 4 73 39
93 15 9 92 34 170 57 128 36 155 41 245 40 56 0 122 -4 147 -8 l45 -7 -45 -17
c-41 -16 -42 -17 -11 -12 19 3 48 12 65 21 71 35 286 56 326 32 15 -10 32 -10
77 0 32 7 134 15 227 17 92 2 173 8 180 13 6 4 27 6 46 3 l35 -6 -33 -24 c-19
-13 -54 -26 -78 -29 -25 -2 -47 -9 -51 -15 -4 -6 11 -7 43 -2 47 6 134 51 134
68 0 5 4 6 8 3 12 -7 192 -16 208 -9 8 3 14 14 14 24 0 24 -5 24 84 -6 41 -14
89 -25 106 -25 17 0 61 -7 97 -17 57 -14 74 -14 130 -3 42 8 94 10 148 6 l82
-7 41 103 c297 754 30 1590 -651 2032 -252 165 -540 252 -852 260 -88 3 -173
3 -190 0z m724 -302 c25 -49 34 -56 116 -89 57 -23 74 -36 101 -76 29 -42 54
-112 43 -121 -2 -2 -19 -6 -36 -9 -32 -6 -33 -5 -33 27 0 79 -37 123 -144 170
-45 20 -60 32 -71 60 -31 73 -10 105 24 38z m108 -138 c47 -35 66 -70 71 -129
4 -48 1 -59 -22 -90 -35 -46 -53 -36 -21 12 58 84 2 163 -114 163 -27 0 -56 3
-65 6 -19 7 -21 35 -3 53 18 19 121 9 154 -15z m-499 -220 c52 -57 114 -67
159 -25 21 20 21 20 27 -2 4 -16 -4 -31 -31 -58 l-37 -36 -17 21 c-10 12 -21
18 -25 14 -4 -5 0 -16 9 -26 42 -46 59 -175 32 -230 -13 -25 -14 -42 -5 -95 5
-35 12 -132 15 -216 l5 -152 54 -72 c55 -74 151 -255 180 -340 43 -126 99
-207 173 -249 35 -20 53 -36 53 -49 0 -16 -4 -17 -26 -9 -14 6 -30 8 -35 4
-11 -7 62 -115 96 -142 28 -22 32 -32 11 -32 -8 0 -38 20 -67 45 -33 28 -56
42 -62 36 -5 -5 -16 -7 -23 -4 -22 8 -16 -8 13 -39 18 -19 22 -28 12 -28 -28
0 -55 28 -78 82 -58 130 -74 158 -136 233 -37 44 -92 112 -124 150 -108 131
-221 309 -246 387 -13 40 -40 118 -60 173 -30 82 -38 118 -42 200 -5 87 -9
107 -35 153 -40 71 -48 59 -9 -13 22 -42 31 -71 31 -106 0 -46 -2 -50 -51 -89
-28 -22 -54 -40 -58 -40 -3 0 -30 -23 -59 -51 -50 -48 -56 -51 -95 -47 -28 3
-73 24 -133 61 -50 31 -103 61 -117 66 -48 18 -43 44 23 136 79 109 249 297
303 334 102 70 176 92 290 87 50 -2 62 -6 85 -32z m385 -3 c3 -15 22 -49 41
-74 l34 -45 -29 -41 c-34 -45 -96 -88 -109 -75 -4 5 -10 18 -13 29 -5 19 -5
19 -12 -3 -8 -23 -8 -23 -22 -2 -21 30 -43 25 -43 -10 0 -25 -4 -30 -23 -30
-36 0 -56 21 -72 73 l-14 47 64 67 c64 67 91 75 37 11 -15 -18 -36 -45 -45
-60 -12 -19 -22 -25 -34 -21 -11 4 -14 3 -9 -5 13 -21 32 -13 57 26 19 28 30
36 48 34 41 -6 70 7 87 39 9 17 14 40 11 50 -4 15 0 19 18 19 17 0 24 -7 28
-29z m-1097 -532 c59 -29 175 -102 170 -106 -9 -9 -65 9 -91 28 -28 23 -35 11
-7 -14 23 -21 105 -37 188 -37 35 0 64 -4 64 -9 0 -5 -12 -24 -27 -41 -24 -29
-31 -32 -67 -27 -23 3 -50 8 -61 12 -19 6 -19 6 -2 -8 10 -8 38 -18 62 -22 29
-4 45 -11 45 -21 0 -18 -28 -18 -87 2 -26 9 -73 22 -103 29 -30 7 -64 16 -75
20 -18 7 -19 6 -4 -9 8 -9 44 -21 78 -27 35 -5 76 -16 92 -24 15 -8 46 -15 69
-15 66 0 50 -25 -32 -50 -82 -25 -188 -75 -255 -121 -24 -17 -47 -28 -50 -25
-15 14 -53 263 -47 301 6 35 36 104 62 143 6 9 30 -5 94 -56 74 -60 93 -70
149 -81 35 -7 70 -15 77 -17 6 -2 12 0 12 4 0 4 -34 15 -76 24 -67 16 -85 25
-160 85 -46 38 -84 74 -84 81 0 7 5 23 12 35 12 22 12 21 18 -8 3 -21 15 -35
36 -46z m944 14 c15 -9 38 -34 50 -56 19 -33 22 -50 18 -111 -6 -75 -45 -207
-64 -213 -6 -2 -30 21 -53 51 l-41 55 0 135 0 134 28 10 c15 6 29 11 30 11 2
1 17 -6 32 -16z m-400 -79 c0 -8 17 -61 39 -117 38 -100 72 -200 68 -203 -1
-1 -58 -20 -127 -43 -69 -23 -132 -44 -141 -47 -11 -4 -23 16 -51 88 -50 129
-54 166 -24 198 14 14 26 36 28 50 4 30 50 55 118 65 25 3 52 10 60 16 22 13
30 11 30 -7z m-217 -346 c35 -92 99 -360 111 -471 11 -106 -40 -170 -145 -180
-31 -3 -94 -21 -140 -40 -84 -34 -202 -74 -419 -141 -137 -42 -160 -60 -160
-127 0 -57 10 -70 56 -78 24 -4 40 -12 42 -22 2 -13 -12 -17 -85 -23 -102 -9
-107 -6 -117 79 -3 30 -17 89 -31 131 -14 42 -25 82 -25 89 0 25 30 36 122 44
l94 8 216 145 c118 80 228 148 244 152 24 6 33 3 52 -19 30 -35 43 -23 14 13
-39 48 -81 125 -111 202 -17 41 -43 101 -59 132 l-30 58 26 19 c65 45 240 119
288 120 17 1 27 -15 57 -91z m682 11 c32 -39 57 -87 89 -172 29 -78 62 -131
110 -176 l36 -35 -32 -33 c-17 -18 -35 -30 -40 -27 -12 8 -63 111 -78 159 -7
22 -42 98 -77 168 -58 117 -67 147 -43 147 4 0 20 -14 35 -31z m-227 -169 l71
-106 -39 -134 c-22 -74 -40 -145 -40 -157 0 -56 112 -129 214 -140 51 -5 57
-8 54 -27 -3 -18 -9 -21 -49 -18 -25 2 -72 -1 -105 -7 -36 -6 -77 -7 -103 -2
-31 6 -61 5 -98 -5 -85 -22 -109 -19 -121 15 -12 35 -5 70 37 174 30 74 33 89
42 265 5 103 13 207 19 232 5 25 9 49 10 54 0 12 22 -18 108 -144z m539 -254
l27 -44 28 39 c37 51 56 58 80 30 13 -17 18 -39 17 -80 l-1 -56 -16 48 c-18
55 -41 61 -70 20 -14 -21 -21 -52 -25 -122 -6 -94 -15 -120 -38 -106 -8 6 -10
33 -6 100 5 87 4 95 -19 129 l-25 36 -39 -22 c-21 -13 -42 -19 -46 -15 -11 11
67 87 88 87 11 0 29 -18 45 -44z"/>
<path d="M1160 4172 l-23 -18 84 -102 c46 -55 92 -101 101 -101 21 -1 48 36
48 64 0 29 -49 103 -94 143 -42 37 -82 42 -116 14z"/>
<path d="M4119 3882 c-63 -41 -119 -106 -119 -140 0 -87 116 -60 214 48 83 92
13 160 -95 92z"/>
</g>
</svg>
